<mxfile host="app.diagrams.net" modified="2024-03-30T06:23:17.369Z" agent="Mozilla/5.0 (Macintosh; Intel Mac OS X 10_15_7) AppleWebKit/605.1.15 (KHTML, like Gecko) Version/17.3.1 Safari/605.1.15" etag="uKpcsqZG1BaUVAL3FGhA" version="24.2.1" type="github">
  <diagram name="Page-1" id="eFLmsp1Xe4wAKw21OshS">
    <mxGraphModel dx="954" dy="647" grid="1" gridSize="10" guides="1" tooltips="1" connect="1" arrows="1" fold="1" page="1" pageScale="1" pageWidth="827" pageHeight="1169" math="0" shadow="0">
      <root>
        <mxCell id="0" />
        <mxCell id="1" parent="0" />
        <mxCell id="6aDmm49BVpvRZx2krb_e-11" style="edgeStyle=orthogonalEdgeStyle;rounded=0;orthogonalLoop=1;jettySize=auto;html=1;entryX=0.5;entryY=0;entryDx=0;entryDy=0;" edge="1" parent="1" source="6aDmm49BVpvRZx2krb_e-1" target="6aDmm49BVpvRZx2krb_e-4">
          <mxGeometry relative="1" as="geometry" />
        </mxCell>
        <mxCell id="6aDmm49BVpvRZx2krb_e-12" style="edgeStyle=orthogonalEdgeStyle;rounded=0;orthogonalLoop=1;jettySize=auto;html=1;entryX=0.575;entryY=-0.05;entryDx=0;entryDy=0;entryPerimeter=0;" edge="1" parent="1" target="6aDmm49BVpvRZx2krb_e-5">
          <mxGeometry relative="1" as="geometry">
            <mxPoint x="760" y="30" as="targetPoint" />
            <mxPoint x="400" y="60" as="sourcePoint" />
          </mxGeometry>
        </mxCell>
        <mxCell id="6aDmm49BVpvRZx2krb_e-1" value="Home" style="rounded=0;whiteSpace=wrap;html=1;" vertex="1" parent="1">
          <mxGeometry x="40" y="30" width="120" height="60" as="geometry" />
        </mxCell>
        <mxCell id="6aDmm49BVpvRZx2krb_e-14" style="edgeStyle=orthogonalEdgeStyle;rounded=0;orthogonalLoop=1;jettySize=auto;html=1;exitX=0;exitY=0.5;exitDx=0;exitDy=0;" edge="1" parent="1" source="6aDmm49BVpvRZx2krb_e-2">
          <mxGeometry relative="1" as="geometry">
            <mxPoint x="90" y="160" as="targetPoint" />
            <Array as="points">
              <mxPoint x="90" y="140" />
            </Array>
          </mxGeometry>
        </mxCell>
        <mxCell id="6aDmm49BVpvRZx2krb_e-15" style="edgeStyle=orthogonalEdgeStyle;rounded=0;orthogonalLoop=1;jettySize=auto;html=1;exitX=0;exitY=0;exitDx=0;exitDy=0;entryX=0.917;entryY=-0.067;entryDx=0;entryDy=0;entryPerimeter=0;" edge="1" parent="1" source="6aDmm49BVpvRZx2krb_e-2" target="6aDmm49BVpvRZx2krb_e-5">
          <mxGeometry relative="1" as="geometry">
            <mxPoint x="800" y="20" as="targetPoint" />
            <Array as="points">
              <mxPoint x="210" y="120" />
              <mxPoint x="10" y="120" />
              <mxPoint x="10" y="20" />
              <mxPoint x="800" y="20" />
            </Array>
          </mxGeometry>
        </mxCell>
        <mxCell id="6aDmm49BVpvRZx2krb_e-17" value="" style="edgeStyle=orthogonalEdgeStyle;rounded=0;orthogonalLoop=1;jettySize=auto;html=1;" edge="1" parent="1" source="6aDmm49BVpvRZx2krb_e-2">
          <mxGeometry relative="1" as="geometry">
            <mxPoint x="270" y="250" as="targetPoint" />
          </mxGeometry>
        </mxCell>
        <mxCell id="6aDmm49BVpvRZx2krb_e-2" value="about" style="rounded=0;whiteSpace=wrap;html=1;" vertex="1" parent="1">
          <mxGeometry x="210" y="110" width="120" height="60" as="geometry" />
        </mxCell>
        <mxCell id="6aDmm49BVpvRZx2krb_e-20" value="" style="edgeStyle=orthogonalEdgeStyle;rounded=0;orthogonalLoop=1;jettySize=auto;html=1;" edge="1" parent="1" source="6aDmm49BVpvRZx2krb_e-3" target="6aDmm49BVpvRZx2krb_e-19">
          <mxGeometry relative="1" as="geometry" />
        </mxCell>
        <mxCell id="6aDmm49BVpvRZx2krb_e-3" value="projects" style="rounded=0;whiteSpace=wrap;html=1;" vertex="1" parent="1">
          <mxGeometry x="370" y="110" width="120" height="60" as="geometry" />
        </mxCell>
        <mxCell id="6aDmm49BVpvRZx2krb_e-24" value="" style="edgeStyle=orthogonalEdgeStyle;rounded=0;orthogonalLoop=1;jettySize=auto;html=1;" edge="1" parent="1" source="6aDmm49BVpvRZx2krb_e-4" target="6aDmm49BVpvRZx2krb_e-23">
          <mxGeometry relative="1" as="geometry" />
        </mxCell>
        <mxCell id="6aDmm49BVpvRZx2krb_e-4" value="blog" style="rounded=0;whiteSpace=wrap;html=1;" vertex="1" parent="1">
          <mxGeometry x="540" y="110" width="120" height="60" as="geometry" />
        </mxCell>
        <mxCell id="6aDmm49BVpvRZx2krb_e-32" value="" style="edgeStyle=orthogonalEdgeStyle;rounded=0;orthogonalLoop=1;jettySize=auto;html=1;" edge="1" parent="1" source="6aDmm49BVpvRZx2krb_e-5" target="6aDmm49BVpvRZx2krb_e-31">
          <mxGeometry relative="1" as="geometry" />
        </mxCell>
        <mxCell id="6aDmm49BVpvRZx2krb_e-5" value="contact" style="rounded=0;whiteSpace=wrap;html=1;" vertex="1" parent="1">
          <mxGeometry x="690" y="110" width="120" height="60" as="geometry" />
        </mxCell>
        <mxCell id="6aDmm49BVpvRZx2krb_e-9" style="edgeStyle=orthogonalEdgeStyle;rounded=0;orthogonalLoop=1;jettySize=auto;html=1;entryX=0.6;entryY=-0.1;entryDx=0;entryDy=0;entryPerimeter=0;" edge="1" parent="1" source="6aDmm49BVpvRZx2krb_e-1" target="6aDmm49BVpvRZx2krb_e-2">
          <mxGeometry relative="1" as="geometry" />
        </mxCell>
        <mxCell id="6aDmm49BVpvRZx2krb_e-10" style="edgeStyle=orthogonalEdgeStyle;rounded=0;orthogonalLoop=1;jettySize=auto;html=1;exitX=1;exitY=0.5;exitDx=0;exitDy=0;entryX=0.6;entryY=-0.067;entryDx=0;entryDy=0;entryPerimeter=0;" edge="1" parent="1" source="6aDmm49BVpvRZx2krb_e-1" target="6aDmm49BVpvRZx2krb_e-3">
          <mxGeometry relative="1" as="geometry" />
        </mxCell>
        <mxCell id="6aDmm49BVpvRZx2krb_e-22" value="" style="edgeStyle=orthogonalEdgeStyle;rounded=0;orthogonalLoop=1;jettySize=auto;html=1;" edge="1" parent="1" source="6aDmm49BVpvRZx2krb_e-13" target="6aDmm49BVpvRZx2krb_e-21">
          <mxGeometry relative="1" as="geometry" />
        </mxCell>
        <mxCell id="6aDmm49BVpvRZx2krb_e-13" value="resume" style="rounded=0;whiteSpace=wrap;html=1;" vertex="1" parent="1">
          <mxGeometry x="40" y="170" width="120" height="60" as="geometry" />
        </mxCell>
        <mxCell id="6aDmm49BVpvRZx2krb_e-18" value="about page leads to my resume and connects to the contact page" style="rounded=0;whiteSpace=wrap;html=1;" vertex="1" parent="1">
          <mxGeometry x="210" y="250" width="120" height="60" as="geometry" />
        </mxCell>
        <mxCell id="6aDmm49BVpvRZx2krb_e-19" value="projects page has a 4 projects that don&#39;t go anywhere&amp;nbsp;&amp;nbsp;" style="rounded=0;whiteSpace=wrap;html=1;" vertex="1" parent="1">
          <mxGeometry x="370" y="250" width="120" height="60" as="geometry" />
        </mxCell>
        <mxCell id="6aDmm49BVpvRZx2krb_e-21" value="is a link to a pdf file of my resume" style="rounded=0;whiteSpace=wrap;html=1;" vertex="1" parent="1">
          <mxGeometry x="40" y="310" width="120" height="60" as="geometry" />
        </mxCell>
        <mxCell id="6aDmm49BVpvRZx2krb_e-26" value="" style="edgeStyle=orthogonalEdgeStyle;rounded=0;orthogonalLoop=1;jettySize=auto;html=1;" edge="1" parent="1" source="6aDmm49BVpvRZx2krb_e-23" target="6aDmm49BVpvRZx2krb_e-25">
          <mxGeometry relative="1" as="geometry" />
        </mxCell>
        <mxCell id="6aDmm49BVpvRZx2krb_e-37" style="edgeStyle=orthogonalEdgeStyle;rounded=0;orthogonalLoop=1;jettySize=auto;html=1;exitX=0;exitY=0.5;exitDx=0;exitDy=0;" edge="1" parent="1" source="6aDmm49BVpvRZx2krb_e-23">
          <mxGeometry relative="1" as="geometry">
            <mxPoint x="520" y="280" as="targetPoint" />
          </mxGeometry>
        </mxCell>
        <mxCell id="6aDmm49BVpvRZx2krb_e-23" value="&amp;nbsp;Blog #1" style="rounded=0;whiteSpace=wrap;html=1;" vertex="1" parent="1">
          <mxGeometry x="540" y="250" width="120" height="60" as="geometry" />
        </mxCell>
        <mxCell id="6aDmm49BVpvRZx2krb_e-28" value="" style="edgeStyle=orthogonalEdgeStyle;rounded=0;orthogonalLoop=1;jettySize=auto;html=1;" edge="1" parent="1" source="6aDmm49BVpvRZx2krb_e-25" target="6aDmm49BVpvRZx2krb_e-27">
          <mxGeometry relative="1" as="geometry" />
        </mxCell>
        <mxCell id="6aDmm49BVpvRZx2krb_e-38" style="edgeStyle=orthogonalEdgeStyle;rounded=0;orthogonalLoop=1;jettySize=auto;html=1;exitX=0;exitY=0.5;exitDx=0;exitDy=0;" edge="1" parent="1" source="6aDmm49BVpvRZx2krb_e-25">
          <mxGeometry relative="1" as="geometry">
            <mxPoint x="520" y="420" as="targetPoint" />
          </mxGeometry>
        </mxCell>
        <mxCell id="6aDmm49BVpvRZx2krb_e-25" value="&amp;nbsp;Blog #2" style="rounded=0;whiteSpace=wrap;html=1;" vertex="1" parent="1">
          <mxGeometry x="540" y="390" width="120" height="60" as="geometry" />
        </mxCell>
        <mxCell id="6aDmm49BVpvRZx2krb_e-30" value="" style="edgeStyle=orthogonalEdgeStyle;rounded=0;orthogonalLoop=1;jettySize=auto;html=1;" edge="1" parent="1" source="6aDmm49BVpvRZx2krb_e-27" target="6aDmm49BVpvRZx2krb_e-29">
          <mxGeometry relative="1" as="geometry" />
        </mxCell>
        <mxCell id="6aDmm49BVpvRZx2krb_e-39" style="edgeStyle=orthogonalEdgeStyle;rounded=0;orthogonalLoop=1;jettySize=auto;html=1;exitX=0;exitY=0.5;exitDx=0;exitDy=0;" edge="1" parent="1" source="6aDmm49BVpvRZx2krb_e-27">
          <mxGeometry relative="1" as="geometry">
            <mxPoint x="510" y="520" as="targetPoint" />
          </mxGeometry>
        </mxCell>
        <mxCell id="6aDmm49BVpvRZx2krb_e-27" value="Blog #3" style="rounded=0;whiteSpace=wrap;html=1;" vertex="1" parent="1">
          <mxGeometry x="540" y="530" width="120" height="60" as="geometry" />
        </mxCell>
        <mxCell id="6aDmm49BVpvRZx2krb_e-40" style="edgeStyle=orthogonalEdgeStyle;rounded=0;orthogonalLoop=1;jettySize=auto;html=1;exitX=0;exitY=0.5;exitDx=0;exitDy=0;" edge="1" parent="1" source="6aDmm49BVpvRZx2krb_e-29">
          <mxGeometry relative="1" as="geometry">
            <mxPoint x="510" y="560" as="targetPoint" />
          </mxGeometry>
        </mxCell>
        <mxCell id="6aDmm49BVpvRZx2krb_e-29" value="Blog #4" style="rounded=0;whiteSpace=wrap;html=1;" vertex="1" parent="1">
          <mxGeometry x="540" y="670" width="120" height="60" as="geometry" />
        </mxCell>
        <mxCell id="6aDmm49BVpvRZx2krb_e-31" value="contact page leads to GitHub, LinkedIn and starts a test email." style="rounded=0;whiteSpace=wrap;html=1;" vertex="1" parent="1">
          <mxGeometry x="690" y="250" width="120" height="60" as="geometry" />
        </mxCell>
        <mxCell id="6aDmm49BVpvRZx2krb_e-36" style="edgeStyle=orthogonalEdgeStyle;rounded=0;orthogonalLoop=1;jettySize=auto;html=1;entryX=0;entryY=0.25;entryDx=0;entryDy=0;" edge="1" parent="1" source="6aDmm49BVpvRZx2krb_e-35" target="6aDmm49BVpvRZx2krb_e-4">
          <mxGeometry relative="1" as="geometry">
            <mxPoint x="515" y="130" as="targetPoint" />
            <Array as="points">
              <mxPoint x="515" y="520" />
              <mxPoint x="515" y="125" />
            </Array>
          </mxGeometry>
        </mxCell>
        <mxCell id="6aDmm49BVpvRZx2krb_e-35" value="blog page include links to each blog page and each blog page includes a link that takes you back to the website" style="rounded=0;whiteSpace=wrap;html=1;" vertex="1" parent="1">
          <mxGeometry x="340" y="470" width="150" height="80" as="geometry" />
        </mxCell>
        <mxCell id="6aDmm49BVpvRZx2krb_e-42" value="&lt;span style=&quot;white-space: nowrap;&quot;&gt;Home leads to all pages&lt;/span&gt;&lt;div&gt;&lt;span style=&quot;white-space: nowrap;&quot;&gt;&amp;nbsp;and all pages except blogs 1- 4 lead&amp;nbsp;&lt;/span&gt;&lt;/div&gt;&lt;div&gt;&lt;span style=&quot;white-space: nowrap;&quot;&gt;back to home, projects, about, blogs&lt;/span&gt;&lt;/div&gt;&lt;div&gt;&lt;span style=&quot;white-space: nowrap;&quot;&gt;and contact. they can be&amp;nbsp;&lt;/span&gt;&lt;span style=&quot;text-wrap: nowrap;&quot;&gt;navigated&amp;nbsp;&lt;/span&gt;&lt;/div&gt;&lt;div&gt;&lt;span style=&quot;text-wrap: nowrap;&quot;&gt;through the&amp;nbsp;&lt;/span&gt;navbar.&lt;/div&gt;" style="whiteSpace=wrap;html=1;" vertex="1" parent="1">
          <mxGeometry x="20" y="420" width="220" height="210" as="geometry" />
        </mxCell>
      </root>
    </mxGraphModel>
  </diagram>
</mxfile>
